<svg width="606" height="273" viewBox="0 0 606 273" fill="none" xmlns="http://www.w3.org/2000/svg">
<path d="M474.6 100.587C473.539 100.605 472.526 101.039 471.781 101.795C471.037 102.552 470.619 103.571 470.619 104.633C470.619 105.694 471.037 106.713 471.781 107.47C472.526 108.226 473.539 108.66 474.6 108.678H576.07C576.602 108.687 577.13 108.592 577.625 108.397C578.12 108.202 578.571 107.911 578.954 107.542C579.336 107.172 579.642 106.731 579.854 106.243C580.065 105.755 580.179 105.231 580.188 104.699C580.196 104.167 580.1 103.639 579.905 103.145C579.709 102.651 579.418 102.2 579.048 101.818C578.678 101.436 578.236 101.131 577.748 100.92C577.26 100.708 576.735 100.596 576.203 100.587C576.158 100.587 576.114 100.587 576.07 100.587H474.6Z" fill="#3F3D56"/>
<path d="M599.081 99.4611C599.007 99.535 598.948 99.6227 598.908 99.7193C598.868 99.8159 598.847 99.9194 598.847 100.024C598.847 100.128 598.868 100.232 598.908 100.329C598.948 100.425 599.007 100.513 599.081 100.587L602.499 104.004H594.069C593.858 104.004 593.656 104.088 593.506 104.237C593.357 104.386 593.273 104.589 593.273 104.8C593.273 105.011 593.357 105.214 593.506 105.363C593.656 105.512 593.858 105.596 594.069 105.596H602.499L599.081 109.013C599.007 109.087 598.948 109.175 598.908 109.271C598.868 109.368 598.847 109.471 598.847 109.576C598.847 109.68 598.868 109.784 598.908 109.881C598.948 109.977 599.007 110.065 599.081 110.139C599.155 110.213 599.242 110.271 599.339 110.311C599.436 110.351 599.539 110.372 599.644 110.372C599.748 110.372 599.852 110.351 599.948 110.311C600.045 110.271 600.133 110.213 600.207 110.139L604.985 105.363C605.134 105.214 605.218 105.011 605.218 104.8C605.218 104.589 605.134 104.386 604.985 104.237L600.207 99.4611C600.133 99.3871 600.045 99.3285 599.948 99.2885C599.852 99.2485 599.748 99.2279 599.644 99.2279C599.539 99.2279 599.436 99.2485 599.339 99.2885C599.242 99.3285 599.155 99.3871 599.081 99.4611Z" fill="white"/>
<path d="M451.547 99.4611C451.62 99.535 451.679 99.6227 451.719 99.7193C451.759 99.8159 451.78 99.9194 451.78 100.024C451.78 100.128 451.759 100.232 451.719 100.329C451.679 100.425 451.62 100.513 451.547 100.587L448.128 104.004H456.558C456.663 104.004 456.766 104.024 456.863 104.064C456.96 104.104 457.048 104.162 457.122 104.236C457.197 104.31 457.256 104.398 457.296 104.495C457.336 104.591 457.357 104.695 457.357 104.8C457.357 104.905 457.336 105.008 457.296 105.105C457.256 105.202 457.197 105.29 457.122 105.364C457.048 105.438 456.96 105.496 456.863 105.536C456.766 105.576 456.663 105.596 456.558 105.596H448.128L451.547 109.013C451.696 109.162 451.78 109.365 451.78 109.576C451.78 109.787 451.696 109.989 451.547 110.139C451.397 110.288 451.195 110.372 450.983 110.372C450.772 110.372 450.57 110.288 450.42 110.139L445.642 105.363C445.493 105.214 445.409 105.011 445.409 104.8C445.409 104.589 445.493 104.386 445.642 104.237L450.42 99.4611C450.494 99.3871 450.582 99.3285 450.679 99.2885C450.775 99.2485 450.879 99.2279 450.983 99.2279C451.088 99.2279 451.192 99.2485 451.288 99.2885C451.385 99.3285 451.473 99.3871 451.547 99.4611V99.4611Z" fill="white"/>
<g opacity="0.4">
<path opacity="0.4" d="M478.698 16.628C481.1 16.628 483.047 14.6818 483.047 12.2809C483.047 9.88005 481.1 7.93378 478.698 7.93378C476.296 7.93378 474.349 9.88005 474.349 12.2809C474.349 14.6818 476.296 16.628 478.698 16.628Z" fill="white"/>
<path opacity="0.4" d="M496.819 16.628C499.221 16.628 501.168 14.6818 501.168 12.2809C501.168 9.88005 499.221 7.93378 496.819 7.93378C494.417 7.93378 492.47 9.88005 492.47 12.2809C492.47 14.6818 494.417 16.628 496.819 16.628Z" fill="white"/>
<path opacity="0.4" d="M514.94 16.628C517.342 16.628 519.289 14.6818 519.289 12.2809C519.289 9.88005 517.342 7.93378 514.94 7.93378C512.538 7.93378 510.591 9.88005 510.591 12.2809C510.591 14.6818 512.538 16.628 514.94 16.628Z" fill="white"/>
<path opacity="0.4" d="M533.061 16.628C535.463 16.628 537.41 14.6818 537.41 12.2809C537.41 9.88005 535.463 7.93378 533.061 7.93378C530.659 7.93378 528.712 9.88005 528.712 12.2809C528.712 14.6818 530.659 16.628 533.061 16.628Z" fill="white"/>
<path opacity="0.4" d="M551.182 16.628C553.584 16.628 555.531 14.6818 555.531 12.2809C555.531 9.88005 553.584 7.93378 551.182 7.93378C548.78 7.93378 546.833 9.88005 546.833 12.2809C546.833 14.6818 548.78 16.628 551.182 16.628Z" fill="white"/>
<path opacity="0.4" d="M569.303 16.628C571.705 16.628 573.652 14.6818 573.652 12.2809C573.652 9.88005 571.705 7.93378 569.303 7.93378C566.901 7.93378 564.954 9.88005 564.954 12.2809C564.954 14.6818 566.901 16.628 569.303 16.628Z" fill="white"/>
<path opacity="0.4" d="M587.424 16.628C589.826 16.628 591.773 14.6818 591.773 12.2809C591.773 9.88005 589.826 7.93378 587.424 7.93378C585.022 7.93378 583.075 9.88005 583.075 12.2809C583.075 14.6818 585.022 16.628 587.424 16.628Z" fill="white"/>
<path opacity="0.4" d="M478.698 30.394C481.1 30.394 483.047 28.4477 483.047 26.0468C483.047 23.646 481.1 21.6997 478.698 21.6997C476.296 21.6997 474.349 23.646 474.349 26.0468C474.349 28.4477 476.296 30.394 478.698 30.394Z" fill="white"/>
<path opacity="0.4" d="M496.819 30.394C499.221 30.394 501.168 28.4477 501.168 26.0468C501.168 23.646 499.221 21.6997 496.819 21.6997C494.417 21.6997 492.47 23.646 492.47 26.0468C492.47 28.4477 494.417 30.394 496.819 30.394Z" fill="white"/>
<path opacity="0.4" d="M514.94 30.394C517.342 30.394 519.289 28.4477 519.289 26.0468C519.289 23.646 517.342 21.6997 514.94 21.6997C512.538 21.6997 510.591 23.646 510.591 26.0468C510.591 28.4477 512.538 30.394 514.94 30.394Z" fill="white"/>
<path opacity="0.4" d="M533.061 30.394C535.463 30.394 537.41 28.4477 537.41 26.0468C537.41 23.646 535.463 21.6997 533.061 21.6997C530.659 21.6997 528.712 23.646 528.712 26.0468C528.712 28.4477 530.659 30.394 533.061 30.394Z" fill="white"/>
<path opacity="0.4" d="M551.182 30.394C553.584 30.394 555.531 28.4477 555.531 26.0468C555.531 23.646 553.584 21.6997 551.182 21.6997C548.78 21.6997 546.833 23.646 546.833 26.0468C546.833 28.4477 548.78 30.394 551.182 30.394Z" fill="white"/>
<path opacity="0.4" d="M569.303 30.394C571.705 30.394 573.652 28.4477 573.652 26.0468C573.652 23.646 571.705 21.6997 569.303 21.6997C566.901 21.6997 564.954 23.646 564.954 26.0468C564.954 28.4477 566.901 30.394 569.303 30.394Z" fill="white"/>
<path opacity="0.4" d="M587.424 30.394C589.826 30.394 591.773 28.4477 591.773 26.0468C591.773 23.646 589.826 21.6997 587.424 21.6997C585.022 21.6997 583.075 23.646 583.075 26.0468C583.075 28.4477 585.022 30.394 587.424 30.394Z" fill="white"/>
<path opacity="0.4" d="M478.698 44.1599C481.1 44.1599 483.047 42.2136 483.047 39.8128C483.047 37.4119 481.1 35.4656 478.698 35.4656C476.296 35.4656 474.349 37.4119 474.349 39.8128C474.349 42.2136 476.296 44.1599 478.698 44.1599Z" fill="white"/>
<path opacity="0.4" d="M496.819 44.1599C499.221 44.1599 501.168 42.2136 501.168 39.8128C501.168 37.4119 499.221 35.4656 496.819 35.4656C494.417 35.4656 492.47 37.4119 492.47 39.8128C492.47 42.2136 494.417 44.1599 496.819 44.1599Z" fill="white"/>
<path opacity="0.4" d="M514.94 44.1599C517.342 44.1599 519.289 42.2136 519.289 39.8128C519.289 37.4119 517.342 35.4656 514.94 35.4656C512.538 35.4656 510.591 37.4119 510.591 39.8128C510.591 42.2136 512.538 44.1599 514.94 44.1599Z" fill="white"/>
<path opacity="0.4" d="M533.061 44.1599C535.463 44.1599 537.41 42.2136 537.41 39.8128C537.41 37.4119 535.463 35.4656 533.061 35.4656C530.659 35.4656 528.712 37.4119 528.712 39.8128C528.712 42.2136 530.659 44.1599 533.061 44.1599Z" fill="white"/>
<path opacity="0.4" d="M551.182 44.1599C553.584 44.1599 555.531 42.2136 555.531 39.8128C555.531 37.4119 553.584 35.4656 551.182 35.4656C548.78 35.4656 546.833 37.4119 546.833 39.8128C546.833 42.2136 548.78 44.1599 551.182 44.1599Z" fill="white"/>
<path opacity="0.4" d="M569.303 44.1599C571.705 44.1599 573.652 42.2136 573.652 39.8128C573.652 37.4119 571.705 35.4656 569.303 35.4656C566.901 35.4656 564.954 37.4119 564.954 39.8128C564.954 42.2136 566.901 44.1599 569.303 44.1599Z" fill="white"/>
<path opacity="0.4" d="M587.424 44.1599C589.826 44.1599 591.773 42.2136 591.773 39.8128C591.773 37.4119 589.826 35.4656 587.424 35.4656C585.022 35.4656 583.075 37.4119 583.075 39.8128C583.075 42.2136 585.022 44.1599 587.424 44.1599Z" fill="white"/>
<path opacity="0.4" d="M478.698 57.9258C481.1 57.9258 483.047 55.9795 483.047 53.5787C483.047 51.1778 481.1 49.2316 478.698 49.2316C476.296 49.2316 474.349 51.1778 474.349 53.5787C474.349 55.9795 476.296 57.9258 478.698 57.9258Z" fill="white"/>
<path opacity="0.4" d="M496.819 57.9258C499.221 57.9258 501.168 55.9795 501.168 53.5787C501.168 51.1778 499.221 49.2316 496.819 49.2316C494.417 49.2316 492.47 51.1778 492.47 53.5787C492.47 55.9795 494.417 57.9258 496.819 57.9258Z" fill="white"/>
<path opacity="0.4" d="M478.698 71.6917C481.1 71.6917 483.047 69.7455 483.047 67.3446C483.047 64.9437 481.1 62.9975 478.698 62.9975C476.296 62.9975 474.349 64.9437 474.349 67.3446C474.349 69.7455 476.296 71.6917 478.698 71.6917Z" fill="white"/>
<path opacity="0.4" d="M496.819 71.6917C499.221 71.6917 501.168 69.7455 501.168 67.3446C501.168 64.9437 499.221 62.9975 496.819 62.9975C494.417 62.9975 492.47 64.9437 492.47 67.3446C492.47 69.7455 494.417 71.6917 496.819 71.6917Z" fill="white"/>
<path opacity="0.4" d="M514.94 71.6917C517.342 71.6917 519.289 69.7455 519.289 67.3446C519.289 64.9437 517.342 62.9975 514.94 62.9975C512.538 62.9975 510.591 64.9437 510.591 67.3446C510.591 69.7455 512.538 71.6917 514.94 71.6917Z" fill="white"/>
<path opacity="0.4" d="M514.94 57.9258C517.342 57.9258 519.289 55.9795 519.289 53.5787C519.289 51.1778 517.342 49.2316 514.94 49.2316C512.538 49.2316 510.591 51.1778 510.591 53.5787C510.591 55.9795 512.538 57.9258 514.94 57.9258Z" fill="white"/>
<path opacity="0.4" d="M533.061 57.9258C535.463 57.9258 537.41 55.9795 537.41 53.5787C537.41 51.1778 535.463 49.2316 533.061 49.2316C530.659 49.2316 528.712 51.1778 528.712 53.5787C528.712 55.9795 530.659 57.9258 533.061 57.9258Z" fill="white"/>
<path opacity="0.4" d="M551.182 57.9258C553.584 57.9258 555.531 55.9795 555.531 53.5787C555.531 51.1778 553.584 49.2316 551.182 49.2316C548.78 49.2316 546.833 51.1778 546.833 53.5787C546.833 55.9795 548.78 57.9258 551.182 57.9258Z" fill="white"/>
<path opacity="0.4" d="M569.303 57.9258C571.705 57.9258 573.652 55.9795 573.652 53.5787C573.652 51.1778 571.705 49.2316 569.303 49.2316C566.901 49.2316 564.954 51.1778 564.954 53.5787C564.954 55.9795 566.901 57.9258 569.303 57.9258Z" fill="white"/>
<path opacity="0.4" d="M587.424 57.9258C589.826 57.9258 591.773 55.9795 591.773 53.5787C591.773 51.1778 589.826 49.2316 587.424 49.2316C585.022 49.2316 583.075 51.1778 583.075 53.5787C583.075 55.9795 585.022 57.9258 587.424 57.9258Z" fill="white"/>
</g>
<path d="M416.311 233.43C411.563 233.43 406.921 232.022 402.974 229.386C399.026 226.749 395.949 223.001 394.132 218.616C392.315 214.232 391.839 209.407 392.765 204.752C393.692 200.097 395.978 195.821 399.336 192.465C402.693 189.109 406.971 186.824 411.628 185.898C416.284 184.972 421.111 185.447 425.498 187.264C429.885 189.08 433.634 192.156 436.272 196.102C438.91 200.048 440.318 204.687 440.318 209.433C440.311 215.795 437.779 221.895 433.279 226.393C428.778 230.892 422.676 233.422 416.311 233.43V233.43ZM416.311 186.798C411.832 186.798 407.454 188.125 403.73 190.612C400.006 193.1 397.103 196.635 395.389 200.771C393.675 204.907 393.227 209.458 394.101 213.849C394.974 218.24 397.131 222.274 400.298 225.439C403.465 228.605 407.5 230.761 411.893 231.634C416.286 232.508 420.839 232.059 424.977 230.346C429.115 228.633 432.652 225.731 435.14 222.009C437.629 218.287 438.957 213.91 438.957 209.433C438.95 203.432 436.562 197.679 432.317 193.435C428.071 189.191 422.315 186.804 416.311 186.798V186.798Z" fill="#3F3D56"/>
<path d="M425.515 207.133H418.612V200.233C418.612 199.623 418.37 199.038 417.938 198.607C417.507 198.176 416.922 197.933 416.311 197.933C415.701 197.933 415.116 198.176 414.684 198.607C414.253 199.038 414.01 199.623 414.01 200.233V207.133H407.107C406.497 207.133 405.912 207.376 405.48 207.807C405.049 208.238 404.806 208.823 404.806 209.433C404.806 210.043 405.049 210.628 405.48 211.06C405.912 211.491 406.497 211.733 407.107 211.733H414.01V218.633C414.01 219.243 414.253 219.828 414.684 220.26C415.116 220.691 415.701 220.933 416.311 220.933C416.922 220.933 417.507 220.691 417.938 220.26C418.37 219.828 418.612 219.243 418.612 218.633V211.733H425.515C426.126 211.733 426.711 211.491 427.142 211.06C427.574 210.628 427.816 210.043 427.816 209.433C427.816 208.823 427.574 208.238 427.142 207.807C426.711 207.376 426.126 207.133 425.515 207.133V207.133Z" fill="white"/>
<g opacity="0.4">
<path opacity="0.4" d="M3.76933 236.376C5.65777 236.376 7.18866 234.846 7.18866 232.958C7.18866 231.07 5.65777 229.54 3.76933 229.54C1.88088 229.54 0.349991 231.07 0.349991 232.958C0.349991 234.846 1.88088 236.376 3.76933 236.376Z" fill="white"/>
<path opacity="0.4" d="M3.76933 222.135C5.65777 222.135 7.18866 220.605 7.18866 218.717C7.18866 216.829 5.65777 215.299 3.76933 215.299C1.88088 215.299 0.349991 216.829 0.349991 218.717C0.349991 220.605 1.88088 222.135 3.76933 222.135Z" fill="white"/>
<path opacity="0.4" d="M3.76933 207.894C5.65777 207.894 7.18866 206.364 7.18866 204.476C7.18866 202.588 5.65777 201.058 3.76933 201.058C1.88088 201.058 0.349991 202.588 0.349991 204.476C0.349991 206.364 1.88088 207.894 3.76933 207.894Z" fill="white"/>
<path opacity="0.4" d="M3.76933 193.653C5.65777 193.653 7.18866 192.123 7.18866 190.235C7.18866 188.347 5.65777 186.817 3.76933 186.817C1.88088 186.817 0.349991 188.347 0.349991 190.235C0.349991 192.123 1.88088 193.653 3.76933 193.653Z" fill="white"/>
<path opacity="0.4" d="M3.76933 179.412C5.65777 179.412 7.18866 177.882 7.18866 175.994C7.18866 174.106 5.65777 172.576 3.76933 172.576C1.88088 172.576 0.349991 174.106 0.349991 175.994C0.349991 177.882 1.88088 179.412 3.76933 179.412Z" fill="white"/>
<path opacity="0.4" d="M3.76933 165.171C5.65777 165.171 7.18866 163.641 7.18866 161.753C7.18866 159.865 5.65777 158.335 3.76933 158.335C1.88088 158.335 0.349991 159.865 0.349991 161.753C0.349991 163.641 1.88088 165.171 3.76933 165.171Z" fill="white"/>
<path opacity="0.4" d="M3.76933 150.93C5.65777 150.93 7.18866 149.4 7.18866 147.512C7.18866 145.624 5.65777 144.094 3.76933 144.094C1.88088 144.094 0.349991 145.624 0.349991 147.512C0.349991 149.4 1.88088 150.93 3.76933 150.93Z" fill="white"/>
<path opacity="0.4" d="M14.5972 236.376C16.4857 236.376 18.0166 234.846 18.0166 232.958C18.0166 231.07 16.4857 229.54 14.5972 229.54C12.7088 229.54 11.1779 231.07 11.1779 232.958C11.1779 234.846 12.7088 236.376 14.5972 236.376Z" fill="white"/>
<path opacity="0.4" d="M14.5972 222.135C16.4857 222.135 18.0166 220.605 18.0166 218.717C18.0166 216.829 16.4857 215.299 14.5972 215.299C12.7088 215.299 11.1779 216.829 11.1779 218.717C11.1779 220.605 12.7088 222.135 14.5972 222.135Z" fill="white"/>
<path opacity="0.4" d="M14.5972 207.894C16.4857 207.894 18.0166 206.364 18.0166 204.476C18.0166 202.588 16.4857 201.058 14.5972 201.058C12.7088 201.058 11.1779 202.588 11.1779 204.476C11.1779 206.364 12.7088 207.894 14.5972 207.894Z" fill="white"/>
<path opacity="0.4" d="M14.5972 193.653C16.4857 193.653 18.0166 192.123 18.0166 190.235C18.0166 188.347 16.4857 186.817 14.5972 186.817C12.7088 186.817 11.1779 188.347 11.1779 190.235C11.1779 192.123 12.7088 193.653 14.5972 193.653Z" fill="white"/>
<path opacity="0.4" d="M14.5972 179.412C16.4857 179.412 18.0166 177.882 18.0166 175.994C18.0166 174.106 16.4857 172.576 14.5972 172.576C12.7088 172.576 11.1779 174.106 11.1779 175.994C11.1779 177.882 12.7088 179.412 14.5972 179.412Z" fill="white"/>
<path opacity="0.4" d="M14.5972 165.171C16.4857 165.171 18.0166 163.641 18.0166 161.753C18.0166 159.865 16.4857 158.335 14.5972 158.335C12.7088 158.335 11.1779 159.865 11.1779 161.753C11.1779 163.641 12.7088 165.171 14.5972 165.171Z" fill="white"/>
<path opacity="0.4" d="M14.5972 150.93C16.4857 150.93 18.0166 149.4 18.0166 147.512C18.0166 145.624 16.4857 144.094 14.5972 144.094C12.7088 144.094 11.1779 145.624 11.1779 147.512C11.1779 149.4 12.7088 150.93 14.5972 150.93Z" fill="white"/>
<path opacity="0.4" d="M25.4251 236.376C27.3136 236.376 28.8445 234.846 28.8445 232.958C28.8445 231.07 27.3136 229.54 25.4251 229.54C23.5367 229.54 22.0058 231.07 22.0058 232.958C22.0058 234.846 23.5367 236.376 25.4251 236.376Z" fill="white"/>
<path opacity="0.4" d="M25.4251 222.135C27.3136 222.135 28.8445 220.605 28.8445 218.717C28.8445 216.829 27.3136 215.299 25.4251 215.299C23.5367 215.299 22.0058 216.829 22.0058 218.717C22.0058 220.605 23.5367 222.135 25.4251 222.135Z" fill="white"/>
<path opacity="0.4" d="M25.4251 207.894C27.3136 207.894 28.8445 206.364 28.8445 204.476C28.8445 202.588 27.3136 201.058 25.4251 201.058C23.5367 201.058 22.0058 202.588 22.0058 204.476C22.0058 206.364 23.5367 207.894 25.4251 207.894Z" fill="white"/>
<path opacity="0.4" d="M25.4251 193.653C27.3136 193.653 28.8445 192.123 28.8445 190.235C28.8445 188.347 27.3136 186.817 25.4251 186.817C23.5367 186.817 22.0058 188.347 22.0058 190.235C22.0058 192.123 23.5367 193.653 25.4251 193.653Z" fill="white"/>
<path opacity="0.4" d="M25.4251 179.412C27.3136 179.412 28.8445 177.882 28.8445 175.994C28.8445 174.106 27.3136 172.576 25.4251 172.576C23.5367 172.576 22.0058 174.106 22.0058 175.994C22.0058 177.882 23.5367 179.412 25.4251 179.412Z" fill="white"/>
<path opacity="0.4" d="M25.4251 165.171C27.3136 165.171 28.8445 163.641 28.8445 161.753C28.8445 159.865 27.3136 158.335 25.4251 158.335C23.5367 158.335 22.0058 159.865 22.0058 161.753C22.0058 163.641 23.5367 165.171 25.4251 165.171Z" fill="white"/>
<path opacity="0.4" d="M25.4251 150.93C27.3136 150.93 28.8445 149.4 28.8445 147.512C28.8445 145.624 27.3136 144.094 25.4251 144.094C23.5367 144.094 22.0058 145.624 22.0058 147.512C22.0058 149.4 23.5367 150.93 25.4251 150.93Z" fill="white"/>
<path opacity="0.4" d="M36.253 236.376C38.1415 236.376 39.6723 234.846 39.6723 232.958C39.6723 231.07 38.1415 229.54 36.253 229.54C34.3646 229.54 32.8337 231.07 32.8337 232.958C32.8337 234.846 34.3646 236.376 36.253 236.376Z" fill="white"/>
<path opacity="0.4" d="M36.253 222.135C38.1415 222.135 39.6723 220.605 39.6723 218.717C39.6723 216.829 38.1415 215.299 36.253 215.299C34.3646 215.299 32.8337 216.829 32.8337 218.717C32.8337 220.605 34.3646 222.135 36.253 222.135Z" fill="white"/>
<path opacity="0.4" d="M47.0809 236.376C48.9694 236.376 50.5002 234.846 50.5002 232.958C50.5002 231.07 48.9694 229.54 47.0809 229.54C45.1925 229.54 43.6616 231.07 43.6616 232.958C43.6616 234.846 45.1925 236.376 47.0809 236.376Z" fill="white"/>
<path opacity="0.4" d="M47.0809 222.135C48.9694 222.135 50.5002 220.605 50.5002 218.717C50.5002 216.829 48.9694 215.299 47.0809 215.299C45.1925 215.299 43.6616 216.829 43.6616 218.717C43.6616 220.605 45.1925 222.135 47.0809 222.135Z" fill="white"/>
<path opacity="0.4" d="M47.0809 207.894C48.9694 207.894 50.5002 206.364 50.5002 204.476C50.5002 202.588 48.9694 201.058 47.0809 201.058C45.1925 201.058 43.6616 202.588 43.6616 204.476C43.6616 206.364 45.1925 207.894 47.0809 207.894Z" fill="white"/>
<path opacity="0.4" d="M36.253 207.894C38.1415 207.894 39.6723 206.364 39.6723 204.476C39.6723 202.588 38.1415 201.058 36.253 201.058C34.3646 201.058 32.8337 202.588 32.8337 204.476C32.8337 206.364 34.3646 207.894 36.253 207.894Z" fill="white"/>
<path opacity="0.4" d="M36.253 193.653C38.1415 193.653 39.6723 192.123 39.6723 190.235C39.6723 188.347 38.1415 186.817 36.253 186.817C34.3646 186.817 32.8337 188.347 32.8337 190.235C32.8337 192.123 34.3646 193.653 36.253 193.653Z" fill="white"/>
<path opacity="0.4" d="M36.253 179.412C38.1415 179.412 39.6723 177.882 39.6723 175.994C39.6723 174.106 38.1415 172.576 36.253 172.576C34.3646 172.576 32.8337 174.106 32.8337 175.994C32.8337 177.882 34.3646 179.412 36.253 179.412Z" fill="white"/>
<path opacity="0.4" d="M36.253 165.171C38.1415 165.171 39.6723 163.641 39.6723 161.753C39.6723 159.865 38.1415 158.335 36.253 158.335C34.3646 158.335 32.8337 159.865 32.8337 161.753C32.8337 163.641 34.3646 165.171 36.253 165.171Z" fill="white"/>
<path opacity="0.4" d="M36.253 150.93C38.1415 150.93 39.6723 149.4 39.6723 147.512C39.6723 145.624 38.1415 144.094 36.253 144.094C34.3646 144.094 32.8337 145.624 32.8337 147.512C32.8337 149.4 34.3646 150.93 36.253 150.93Z" fill="white"/>
</g>
<path d="M305.542 0.451843H78.3933C77.2777 0.452971 76.2081 0.896469 75.4192 1.68499C74.6303 2.47352 74.1867 3.54266 74.1855 4.65779V198.808C74.1867 199.923 74.6303 200.992 75.4192 201.781C76.2081 202.569 77.2777 203.013 78.3933 203.014H305.542C306.658 203.013 307.728 202.569 308.516 201.781C309.305 200.992 309.749 199.923 309.75 198.808V4.65777C309.749 3.54263 309.305 2.47349 308.516 1.68497C307.728 0.896453 306.658 0.452967 305.542 0.451843ZM308.064 198.808C308.063 199.477 307.798 200.119 307.325 200.592C306.853 201.066 306.212 201.334 305.542 201.336H78.3933C77.7235 201.335 77.0816 201.068 76.6087 200.594C76.1359 200.12 75.8708 199.477 75.8718 198.808V4.65777C75.8708 3.98828 76.1359 3.34581 76.6087 2.87167C77.0816 2.39753 77.7235 2.13055 78.3933 2.12948H305.542C306.212 2.13188 306.853 2.39927 307.325 2.87312C307.798 3.34698 308.063 3.98869 308.064 4.65777V198.808Z" fill="#3F3D56"/>
<path d="M130.825 168.492C130.825 168.791 130.817 169.091 130.801 169.382C130.572 173.764 128.67 177.89 125.486 180.911C122.302 183.931 118.08 185.615 113.691 185.615C109.301 185.615 105.079 183.931 101.895 180.911C98.7114 177.89 96.8088 173.764 96.5797 169.382C96.564 169.091 96.5561 168.791 96.5561 168.492C96.5547 166.242 96.9968 164.014 97.8573 161.934C98.7177 159.855 99.9796 157.966 101.571 156.374C103.162 154.783 105.051 153.52 107.131 152.659C109.211 151.798 111.44 151.354 113.691 151.354C115.942 151.354 118.171 151.798 120.25 152.659C122.33 153.52 124.219 154.783 125.81 156.374C127.402 157.966 128.663 159.855 129.524 161.934C130.384 164.014 130.826 166.242 130.825 168.492Z" fill="white"/>
<path d="M287.892 157.071H153.259C152.502 157.073 151.776 157.374 151.242 157.909C150.707 158.445 150.407 159.17 150.407 159.927C150.407 160.683 150.707 161.409 151.242 161.944C151.776 162.479 152.502 162.781 153.259 162.782H287.892C288.648 162.781 289.374 162.479 289.909 161.944C290.443 161.409 290.744 160.683 290.744 159.927C290.744 159.17 290.443 158.445 289.909 157.909C289.374 157.374 288.648 157.073 287.892 157.071V157.071Z" fill="#3F3D56"/>
<path d="M211.19 174.202H153.259C152.502 174.202 151.777 174.503 151.242 175.037C150.707 175.572 150.406 176.297 150.406 177.053C150.406 177.81 150.707 178.535 151.242 179.07C151.777 179.604 152.502 179.905 153.259 179.905H211.19C211.947 179.905 212.672 179.604 213.207 179.07C213.742 178.535 214.043 177.81 214.043 177.053C214.043 176.297 213.742 175.572 213.207 175.037C212.672 174.503 211.947 174.202 211.19 174.202Z" fill="white"/>
<path d="M359.508 136.908H132.36C130.818 136.906 129.339 136.293 128.248 135.203C127.157 134.112 126.543 132.634 126.542 131.092V31.4517C126.543 29.9098 127.157 28.4315 128.248 27.3411C129.339 26.2507 130.818 25.6373 132.36 25.6355H359.508C361.051 25.6373 362.53 26.2507 363.62 27.3411C364.711 28.4315 365.325 29.9098 365.326 31.4517V131.092C365.325 132.634 364.711 134.112 363.62 135.203C362.53 136.293 361.051 136.906 359.508 136.908V136.908ZM132.36 27.6765C131.359 27.6776 130.399 28.0758 129.691 28.7835C128.983 29.4913 128.585 30.4509 128.584 31.4517V131.092C128.585 132.093 128.983 133.052 129.691 133.76C130.399 134.468 131.359 134.866 132.36 134.867H359.508C360.509 134.866 361.469 134.468 362.177 133.76C362.885 133.052 363.283 132.093 363.285 131.092V31.4517C363.283 30.4509 362.885 29.4913 362.177 28.7835C361.469 28.0758 360.509 27.6776 359.508 27.6765H132.36Z" fill="white"/>
<path d="M178.619 61.9775C177.861 61.9775 177.135 62.2782 176.599 62.8135C176.064 63.3489 175.763 64.0749 175.763 64.832C175.763 65.5891 176.064 66.3151 176.599 66.8505C177.135 67.3858 177.861 67.6865 178.619 67.6865H313.249C314.006 67.6865 314.733 67.3858 315.268 66.8505C315.804 66.3151 316.105 65.5891 316.105 64.832C316.105 64.0749 315.804 63.3489 315.268 62.8135C314.733 62.2782 314.006 61.9775 313.249 61.9775H178.619Z" fill="white"/>
<path d="M178.619 78.5176C177.861 78.5176 177.135 78.8184 176.599 79.3537C176.064 79.889 175.763 80.6151 175.763 81.3722C175.763 82.1293 176.064 82.8553 176.599 83.3906C177.135 83.926 177.861 84.2267 178.619 84.2267H313.249C314.006 84.2255 314.731 83.9243 315.265 83.3891C315.8 82.8539 316.1 82.1285 316.1 81.3722C316.1 80.6159 315.8 79.8905 315.265 79.3553C314.731 78.8201 314.006 78.5188 313.249 78.5176H178.619Z" fill="white"/>
<path d="M178.619 94.8572C177.861 94.8572 177.135 95.158 176.599 95.6933C176.064 96.2286 175.763 96.9547 175.763 97.7118C175.763 98.4688 176.064 99.1949 176.599 99.7302C177.135 100.266 177.861 100.566 178.619 100.566H236.551C237.307 100.565 238.032 100.264 238.567 99.7287C239.102 99.1935 239.402 98.4681 239.402 97.7118C239.402 96.9555 239.102 96.2301 238.567 95.6949C238.032 95.1597 237.307 94.8584 236.551 94.8572H178.619Z" fill="white"/>
<path d="M396.959 179.123L374.145 146.939L381.53 148.477C381.662 148.505 381.797 148.506 381.929 148.481C382.061 148.456 382.186 148.405 382.298 148.332C382.411 148.258 382.507 148.163 382.583 148.053C382.658 147.942 382.711 147.817 382.739 147.686C382.766 147.555 382.767 147.419 382.742 147.287C382.717 147.156 382.667 147.03 382.593 146.918C382.52 146.806 382.425 146.709 382.314 146.634C382.203 146.558 382.078 146.505 381.947 146.478L370.941 144.188L369.455 155.325C369.437 155.458 369.446 155.593 369.48 155.723C369.514 155.853 369.574 155.975 369.655 156.082C369.737 156.189 369.839 156.278 369.955 156.346C370.071 156.413 370.2 156.457 370.333 156.475C370.466 156.493 370.602 156.484 370.731 156.449C370.861 156.415 370.983 156.355 371.09 156.273C371.196 156.191 371.286 156.089 371.353 155.973C371.42 155.856 371.464 155.728 371.481 155.594L372.477 148.116L395.293 180.303C395.371 180.412 395.469 180.505 395.582 180.577C395.696 180.648 395.822 180.696 395.954 180.719C396.087 180.741 396.222 180.737 396.353 180.708C396.483 180.678 396.607 180.623 396.716 180.545C396.826 180.468 396.919 180.37 396.99 180.256C397.061 180.143 397.11 180.016 397.132 179.884C397.155 179.752 397.151 179.617 397.121 179.486C397.092 179.356 397.036 179.232 396.959 179.123V179.123Z" fill="white"/>
<path d="M273.048 272.794H110.887C110.091 272.793 109.328 272.476 108.765 271.914C108.202 271.351 107.885 270.588 107.884 269.792V229.585C107.885 228.789 108.202 228.026 108.765 227.463C109.328 226.9 110.091 226.584 110.887 226.583H273.048C273.844 226.584 274.608 226.9 275.171 227.463C275.733 228.026 276.05 228.789 276.051 229.585V269.792C276.05 270.588 275.733 271.351 275.171 271.914C274.608 272.476 273.844 272.793 273.048 272.794V272.794ZM110.887 227.784C110.41 227.784 109.952 227.974 109.614 228.312C109.276 228.649 109.086 229.107 109.086 229.585V269.792C109.086 270.27 109.276 270.727 109.614 271.065C109.952 271.403 110.41 271.593 110.887 271.593H273.048C273.526 271.593 273.984 271.403 274.322 271.065C274.659 270.727 274.849 270.27 274.85 269.792V229.585C274.849 229.107 274.659 228.649 274.322 228.312C273.984 227.974 273.526 227.784 273.048 227.784H110.887Z" fill="#3F3D56"/>
<path d="M136.084 260.373C142.84 260.373 148.316 254.898 148.316 248.146C148.316 241.393 142.84 235.918 136.084 235.918C129.328 235.918 123.851 241.393 123.851 248.146C123.851 254.898 129.328 260.373 136.084 260.373Z" fill="white"/>
<path d="M164.335 239.994C164.067 239.994 163.802 240.046 163.554 240.148C163.306 240.25 163.081 240.4 162.891 240.59C162.701 240.779 162.551 241.004 162.448 241.251C162.346 241.499 162.293 241.764 162.293 242.032C162.293 242.3 162.346 242.565 162.448 242.813C162.551 243.06 162.701 243.285 162.891 243.474C163.081 243.664 163.306 243.814 163.554 243.916C163.802 244.018 164.067 244.07 164.335 244.07H260.448C260.989 244.07 261.507 243.855 261.889 243.473C262.272 243.091 262.487 242.572 262.487 242.032C262.487 241.491 262.272 240.973 261.889 240.591C261.507 240.209 260.989 239.994 260.448 239.994H164.335Z" fill="white"/>
<path d="M164.335 252.221C164.067 252.221 163.802 252.273 163.554 252.375C163.306 252.477 163.081 252.627 162.891 252.817C162.701 253.006 162.551 253.231 162.448 253.478C162.346 253.726 162.293 253.991 162.293 254.259C162.293 254.527 162.346 254.792 162.448 255.04C162.551 255.287 162.701 255.512 162.891 255.701C163.081 255.891 163.306 256.041 163.554 256.143C163.802 256.245 164.067 256.297 164.335 256.297H205.693C206.233 256.297 206.752 256.082 207.134 255.7C207.517 255.318 207.732 254.8 207.732 254.259C207.732 253.719 207.517 253.2 207.134 252.818C206.752 252.436 206.233 252.221 205.693 252.221H164.335Z" fill="white"/>
<path d="M487.004 129.544H559.076C559.872 129.545 560.635 129.861 561.198 130.424C561.761 130.987 562.078 131.75 562.079 132.545V207.572C562.078 208.368 561.761 209.131 561.198 209.693C560.635 210.256 559.872 210.573 559.076 210.574H487.004C486.208 210.573 485.445 210.256 484.882 209.693C484.319 209.131 484.002 208.368 484.001 207.572V132.545C484.002 131.75 484.319 130.987 484.882 130.424C485.445 129.861 486.208 129.545 487.004 129.544V129.544ZM559.076 209.373C559.554 209.372 560.012 209.183 560.349 208.845C560.687 208.507 560.877 208.049 560.878 207.572V132.545C560.877 132.068 560.687 131.61 560.349 131.272C560.012 130.935 559.554 130.745 559.076 130.744H487.004C486.527 130.745 486.069 130.935 485.731 131.272C485.393 131.61 485.203 132.068 485.203 132.545V207.572C485.203 208.049 485.393 208.507 485.731 208.845C486.069 209.183 486.527 209.372 487.004 209.373H559.076Z" fill="#3F3D56"/>
<path d="M543.719 195.102C544.26 195.102 544.778 194.887 545.161 194.505C545.543 194.123 545.758 193.604 545.758 193.064C545.758 192.523 545.543 192.005 545.161 191.623C544.778 191.241 544.26 191.026 543.719 191.026H502.361C501.821 191.026 501.302 191.241 500.92 191.623C500.538 192.005 500.323 192.523 500.323 193.064C500.323 193.604 500.538 194.123 500.92 194.505C501.302 194.887 501.821 195.102 502.361 195.102H543.719Z" fill="white"/>
<path d="M543.719 183.095C543.987 183.096 544.253 183.043 544.5 182.941C544.748 182.839 544.973 182.689 545.163 182.5C545.353 182.31 545.503 182.086 545.606 181.838C545.709 181.591 545.761 181.325 545.761 181.057C545.761 180.789 545.709 180.524 545.606 180.277C545.503 180.029 545.353 179.804 545.163 179.615C544.973 179.426 544.748 179.276 544.5 179.174C544.253 179.071 543.987 179.019 543.719 179.019H502.361C502.093 179.019 501.828 179.071 501.58 179.174C501.332 179.276 501.107 179.426 500.917 179.615C500.728 179.804 500.577 180.029 500.474 180.277C500.372 180.524 500.319 180.789 500.319 181.057C500.319 181.325 500.372 181.591 500.474 181.838C500.577 182.086 500.728 182.31 500.917 182.5C501.107 182.689 501.332 182.839 501.58 182.941C501.828 183.043 502.093 183.096 502.361 183.095H543.719Z" fill="white"/>
<path d="M523.04 145.016C525.578 145.016 528.059 145.768 530.17 147.177C532.28 148.587 533.925 150.59 534.896 152.934C535.867 155.278 536.122 157.857 535.626 160.345C535.131 162.834 533.909 165.119 532.114 166.913C530.32 168.707 528.033 169.929 525.544 170.424C523.054 170.919 520.474 170.665 518.129 169.694C515.784 168.723 513.78 167.079 512.37 164.969C510.96 162.86 510.207 160.38 510.207 157.843C510.211 154.442 511.564 151.182 513.97 148.777C516.376 146.372 519.638 145.019 523.04 145.016Z" fill="white"/>
</svg>
